<svg xmlns="http://www.w3.org/2000/svg" width="28" height="28" viewBox="0 0 79 72"><defs><style>.a{fill:#fff;}</style></defs><path class="a" d="M77.51,13.29,72.7,7.81a4.57,4.57,0,0,0-6.43-.41l-30,26.4-8.67-9.86a4.55,4.55,0,0,0-6.42-.41l-5.34,4.69a4.49,4.49,0,0,0-1.54,3.12,4.55,4.55,0,0,0,1.12,3.31L29.7,51a7.8,7.8,0,0,0,5.37,2.64l.52,0a7.79,7.79,0,0,0,5.15-2L77.09,19.72a4.48,4.48,0,0,0,1.54-3.13A4.53,4.53,0,0,0,77.51,13.29Z" transform="translate(0 0)"/><path class="a" d="M58.5,63h-45A4.49,4.49,0,0,1,9,58.5v-45A4.49,4.49,0,0,1,13.5,9H57.09a3.79,3.79,0,0,0,2.64-1.07l4-3.86A2.37,2.37,0,0,0,62,0H13.5A13.49,13.49,0,0,0,0,13.5v45A13.49,13.49,0,0,0,13.5,72h45A13.49,13.49,0,0,0,72,58.5V34.08a1.91,1.91,0,0,0-3.17-1.44l-4.5,4A3.88,3.88,0,0,0,63,39.53v19A4.49,4.49,0,0,1,58.5,63Z" transform="translate(0 0)"/></svg>