<svg xmlns="http://www.w3.org/2000/svg" width="134" height="155" viewBox="0 0 134 155"><defs><style>.a{fill:#2a95af;}.b{fill:none;}.c{fill:#fff;}</style></defs><title>icon2</title><polygon class="a" points="0 38.67 0 116.01 66.98 154.68 133.96 116.01 133.96 38.67 66.98 0 0 38.67"/><polygon class="b" points="34.1 39.95 34.1 111.6 99.86 111.6 99.86 97.55 99.86 97.1 99.86 56.4 83.4 39.95 34.1 39.95"/><path class="c" d="M99.86,51.91l-12-12-3.17-3.18H32.86a2.29,2.29,0,0,0-2.29,2.3v73.41a2.28,2.28,0,0,0,2.29,2.29H101.1a2.29,2.29,0,0,0,2.29-2.29v-57Zm0,45.19v14.5H34.1V40H83.4L99.86,56.4Z"/><polygon class="c" points="79.76 56.79 77.36 59.18 77.36 59.18 81.88 63.7 89.51 56.07 87.77 54.29 81.93 59.14 79.76 56.79"/><rect class="c" x="41.63" y="59.67" width="30.88" height="4.03" rx="1.42" ry="1.42"/><polygon class="c" points="79.76 73.56 77.36 75.96 77.36 75.96 81.88 80.48 89.51 72.85 87.77 71.07 81.93 75.92 79.76 73.56"/><rect class="c" x="41.63" y="76.45" width="30.88" height="4.03" rx="1.42" ry="1.42"/><polygon class="c" points="79.76 90.34 77.36 92.74 77.36 92.74 81.88 97.26 89.51 89.62 87.77 87.85 81.93 92.7 79.76 90.34"/><rect class="c" x="41.63" y="93.23" width="30.88" height="4.03" rx="1.42" ry="1.42"/></svg>