<svg xmlns="http://www.w3.org/2000/svg"><defs><style>.a{fill:#087b97;}.b{fill:#fff;}.c{fill:none;stroke:#fff;stroke-miterlimit:10;stroke-width:3px;}</style></defs><title>icon1</title><polygon class="a" points="0 38.67 0 116.01 66.98 154.68 133.96 116.01 133.96 38.67 66.98 0 0 38.67"/><polygon class="b" points="57.63 71.64 80.19 71.64 80.19 64.01 84.51 64.01 84.51 75.91 57.63 75.91 57.63 77.39 57.63 81.06 46.91 73.89 57.63 66.84 57.63 71.64"/><rect class="c" x="34.21" y="37.51" width="63" height="49" rx="5.92" ry="5.92"/><line class="c" x1="35.21" y1="84.51" x2="27.21" y2="110.51"/><line class="c" x1="95.21" y1="84.51" x2="103.21" y2="110.51"/><path class="c" d="M97.21,42.51l11,13h0v47a11,11,0,0,1-11,11h-63a11,11,0,0,1-11-11V56.58a3,3,0,0,1,.7-1.9l10.3-12.17"/><path class="b" d="M45.91,57.51V44.89H55v1.49H47.58v3.86h7v1.48h-7V56h7.75v1.49Z"/><path class="b" d="M57.44,57.51V48.37h1.39v1.3a3.3,3.3,0,0,1,2.91-1.51,3.75,3.75,0,0,1,1.52.3,2.29,2.29,0,0,1,1,.78,2.93,2.93,0,0,1,.48,1.14,8.54,8.54,0,0,1,.09,1.51v5.62H63.32V52a4.21,4.21,0,0,0-.18-1.42,1.55,1.55,0,0,0-.64-.75,2.12,2.12,0,0,0-1.08-.28,2.51,2.51,0,0,0-1.71.63A3.1,3.1,0,0,0,59,52.52v5Z"/><path class="b" d="M70.63,56.12l.22,1.37a6,6,0,0,1-1.17.14,2.64,2.64,0,0,1-1.31-.27,1.46,1.46,0,0,1-.65-.7,5.44,5.44,0,0,1-.19-1.83V49.57H66.39v-1.2h1.14V46.1l1.54-.93v3.2h1.56v1.2H69.07v5.35a2.88,2.88,0,0,0,.08.85.61.61,0,0,0,.27.3,1.07,1.07,0,0,0,.53.11A5.07,5.07,0,0,0,70.63,56.12Z"/><path class="b" d="M78.4,54.56l1.6.2a3.91,3.91,0,0,1-1.4,2.18,4.78,4.78,0,0,1-5.8-.46A4.84,4.84,0,0,1,71.63,53a5.07,5.07,0,0,1,1.18-3.58,4,4,0,0,1,3.08-1.27,3.91,3.91,0,0,1,3,1.25,4.92,4.92,0,0,1,1.16,3.51c0,.09,0,.23,0,.41H73.23a3.47,3.47,0,0,0,.85,2.31,2.55,2.55,0,0,0,1.91.8A2.34,2.34,0,0,0,77.44,56,2.94,2.94,0,0,0,78.4,54.56Zm-5.09-2.5h5.11a3.1,3.1,0,0,0-.59-1.73,2.36,2.36,0,0,0-1.92-.9,2.44,2.44,0,0,0-1.79.72A2.78,2.78,0,0,0,73.31,52.06Z"/><path class="b" d="M81.93,57.51V48.37h1.39v1.38a3.86,3.86,0,0,1,1-1.28,1.68,1.68,0,0,1,1-.31,3.05,3.05,0,0,1,1.6.5l-.54,1.44a2.17,2.17,0,0,0-1.13-.34,1.46,1.46,0,0,0-.92.31,1.59,1.59,0,0,0-.57.84,5.82,5.82,0,0,0-.26,1.81v4.79Z"/></svg>