<?xml version="1.0" standalone="no"?>
<!DOCTYPE svg PUBLIC "-//W3C//DTD SVG 20010904//EN"
 "http://www.w3.org/TR/2001/REC-SVG-20010904/DTD/svg10.dtd">
<svg version="1.0" xmlns="http://www.w3.org/2000/svg"
 width="30" height="30" viewBox="0 0 904 1080"
 preserveAspectRatio="xMidYMid meet">
<metadata>
Created by potrace 1.15, written by Peter Selinger 2001-2017
</metadata>
<g transform="translate(0.000000,1280.000000) scale(0.100000,-0.100000)"
fill="#000000" stroke="none">
<path d="M3105 12794 c-341 -54 -627 -287 -739 -602 -59 -165 -56 -41 -56
-2516 l0 -2271 -62 70 c-254 284 -550 457 -921 537 -87 19 -134 22 -317 22
-195 1 -224 -1 -305 -23 -279 -73 -493 -247 -615 -502 -66 -139 -83 -220 -83
-394 0 -177 17 -256 87 -400 107 -219 270 -366 516 -466 127 -51 201 -94 280
-160 151 -126 257 -307 305 -524 3 -16 10 -210 15 -430 9 -474 31 -666 111
-993 210 -857 693 -1611 1395 -2173 283 -228 428 -447 506 -769 19 -79 22
-125 27 -612 l6 -526 24 -26 c51 -54 131 -41 164 27 l19 37 2119 0 c2011 0
2119 -1 2119 -17 1 -23 28 -57 59 -73 35 -18 86 -4 115 31 l26 31 0 467 c0
495 7 648 41 851 70 420 212 767 476 1162 140 209 210 328 288 491 163 340
257 661 312 1063 17 120 18 273 18 2259 l0 2130 -28 90 c-105 339 -346 569
-683 652 -107 26 -315 23 -424 -6 -162 -43 -301 -122 -420 -238 -35 -35 -65
-63 -66 -63 -1 0 -4 60 -7 133 -6 159 -29 255 -92 382 -287 580 -1064 689
-1503 210 -34 -38 -64 -66 -65 -64 -2 2 -9 24 -16 49 -34 119 -129 267 -238
371 -328 316 -825 345 -1192 68 -44 -33 -95 -78 -114 -99 -19 -22 -37 -40 -40
-40 -4 0 -8 476 -9 1058 -3 981 -4 1061 -21 1117 -81 273 -252 477 -498 595
-121 57 -221 81 -364 85 -66 2 -133 1 -150 -1z"/>
</g>
</svg>
