<svg xmlns="http://www.w3.org/2000/svg" width="122" height="140" viewBox="0 0 134 155"><defs><style>.a{fill:#2a95af;}.b,.c{fill:none;stroke:#fff;stroke-miterlimit:10;}.b{stroke-width:2.69px;}.c{stroke-width:1.8px;}.d{fill:#fff;}</style></defs><title>icon3</title><polygon class="a" points="0 38.67 0 116.01 66.98 154.68 133.96 116.01 133.96 38.67 66.98 0 0 38.67"/><path class="b" d="M99,115.85H37.61A10.86,10.86,0,0,1,26.78,105h0A10.86,10.86,0,0,1,37.61,94.2h64.51"/><line class="c" x1="39.71" y1="100.74" x2="93.85" y2="100.74"/><line class="c" x1="39.71" y1="105.03" x2="93.85" y2="105.03"/><line class="c" x1="39.71" y1="109.31" x2="93.85" y2="109.31"/><path class="d" d="M101.23,114.62H37.55a9.44,9.44,0,0,1-9.43-9.43V50.05a9.44,9.44,0,0,1,9.43-9.43h63.68v8.61l2.69.66v-12H37.55A12.14,12.14,0,0,0,25.43,50.05v55.14a12.13,12.13,0,0,0,12.12,12.12h66.37v-27l-2.69-.66Z"/><path class="d" d="M121.59,90.38a1.42,1.42,0,0,0-.1-2L109,77.26a1.51,1.51,0,0,0-2.09.1l-4.47,4.81a1.42,1.42,0,0,0,.1,2L115,95.29a1.5,1.5,0,0,0,2.09-.1Z"/><path class="d" d="M91.56,51.45a16.39,16.39,0,0,1,15.5,10.75A15.87,15.87,0,0,1,96.92,82.51a16.67,16.67,0,0,1-5.36.88,16.38,16.38,0,0,1-15.5-10.75A15.87,15.87,0,0,1,86.2,52.33a16.67,16.67,0,0,1,5.36-.88m0,4.33a12.18,12.18,0,0,0-3.91.64h0a11.82,11.82,0,0,0-6.84,5.92,11.28,11.28,0,0,0-.55,8.89,12,12,0,0,0,11.3,7.83,12.14,12.14,0,0,0,3.91-.64,11.78,11.78,0,0,0,6.84-5.91,11.28,11.28,0,0,0,.55-8.89,12,12,0,0,0-11.3-7.84Z"/></svg>